<?xml version="1.0" encoding="utf-8"?>
<!-- Generator: Adobe Illustrator 24.1.1, SVG Export Plug-In . SVG Version: 6.00 Build 0)  -->
<svg version="1.1" id="Layer_1" xmlns="http://www.w3.org/2000/svg" xmlns:xlink="http://www.w3.org/1999/xlink" x="0px" y="0px"
	 viewBox="0 0 365.8 311.6" style="enable-background:new 0 0 365.8 311.6;" xml:space="preserve">
<style type="text/css">
	.st0{fill:#EB1B36;}
</style>
<path class="st0" d="M314.3,274.5h-15.7L175.1,60.7l14.4-25.5c1.6-2.8,0.7-6.4-2.2-8c-2.8-1.6-6.4-0.7-8,2.2l-11,19.6l-11.4-19.6
	c-1.6-2.8-5.2-3.8-8-2.2c-2.8,1.6-3.8,5.2-2.2,8l14.8,25.5L38,274.5H22.4c-3.3,0-5.9,2.6-5.9,5.9c0,3.3,2.6,5.9,5.9,5.9h19
	c0,0,0,0,0.1,0c0,0,0,0,0,0h253.7c0,0,0,0,0,0c0,0,0,0,0.1,0h19c3.3,0,5.9-2.6,5.9-5.9C320.2,277.2,317.6,274.5,314.3,274.5z
	 M174.2,273.9V172.4c15.7,0.3,28.4,13.1,28.4,28.9v73.2h-28.5C174.1,274.3,174.2,274.1,174.2,273.9z M174.2,161.7v-79L285,274.5
	h-71.6v-73.2C213.4,179.6,195.8,162,174.2,161.7z M63.4,254.1h39.7c3.3,0,5.9-2.6,5.9-5.9c0-3.3-2.6-5.9-5.9-5.9H70.2l4.1-7.2
	c0.1,0,0.1,0,0.2,0h57.2c3.3,0,5.9-2.6,5.9-5.9c0-3.3-2.6-5.9-5.9-5.9H81.2l28.8-50h21.7c3.3,0,5.9-2.6,5.9-5.9s-2.6-5.9-5.9-5.9
	h-14.9l45.6-79v191.3c0,0.2,0.1,0.4,0.1,0.6H51.6L63.4,254.1z"/>
<path class="st0" d="M168.3,266.1"/>
<path class="st0" d="M228.1,151.4l45.2-41.9c0.6,0.2,1.3,0.4,2,0.6c4.6,1.1,9.3,0.4,13.4-2c8.4-5,11.1-15.9,6.1-24.2
	c-2.4-4-6.3-6.9-10.8-8c-4.6-1.2-9.3-0.4-13.4,2c-4.8,2.9-7.8,7.7-8.4,12.9l-58.3,20.1 M275.9,86.9c1.6-0.9,3.5-1.2,5.4-0.8
	c1.8,0.5,3.3,1.6,4.3,3.2c1,1.6,1.3,3.5,0.8,5.4c-0.5,1.8-1.6,3.3-3.2,4.3c-3.2,2-7.7,0.8-9.7-2.4c-0.9-1.6-1.2-3.5-0.8-5.3
	C273.2,89.4,274.3,87.9,275.9,86.9z M263.9,101.2c0.1,0.3,0.3,0.6,0.4,0.8c0.2,0.3,0.3,0.5,0.5,0.8l-5.3,4.9l-2.5-4.2L263.9,101.2z
	 M246.8,107.1l4.8,8.1l-3.9,3.7l-6-10L246.8,107.1z M231.5,112.4L231.5,112.4l8.3,13.8l0,0l-4,3.7l-9.4-15.7L231.5,112.4z
	 M216.1,117.7l11.7,19.5l-5.3,4.9L209.3,120L216.1,117.7z M315.7,107.1c-2.8-0.7-4.6-3.6-3.9-6.4c4-16.1-5.8-32.4-21.8-36.4
	c-2.8-0.7-4.6-3.6-3.9-6.4c0.7-2.8,3.6-4.6,6.4-3.9c21.7,5.4,35,27.6,29.5,49.3C321.4,106,318.5,107.8,315.7,107.1L315.7,107.1z
	 M343.1,113.9c-2.8-0.7-4.6-3.6-3.9-6.4c7.8-31.2-11.2-62.9-42.4-70.7c-2.8-0.7-4.6-3.6-3.9-6.4c0.7-2.8,3.6-4.6,6.4-3.9
	c36.8,9.2,59.3,46.7,50.1,83.6C348.8,112.9,346,114.6,343.1,113.9L343.1,113.9z"/>
</svg>
